<?xml version="1.0" encoding="utf-8"?>
<!-- Generator: Adobe Illustrator 27.0.0, SVG Export Plug-In . SVG Version: 6.00 Build 0)  -->
<svg version="1.1" id="Layer_1" xmlns="http://www.w3.org/2000/svg" xmlns:xlink="http://www.w3.org/1999/xlink" x="0px" y="0px"
	 viewBox="0 0 1503 583" style="enable-background:new 0 0 1503 583;" xml:space="preserve">
<style type="text/css">
	.st0{fill:none;}
	.st1{fill:#705048;}
	.st2{fill:#B08500;}
	.st3{fill:#DB9C01;}
</style>
<g id="Calque_1">
	<g>
		<path class="st0" d="M1107.3,529.7c0,5.6,5.2,8.9,11.2,8.9c8.2,0,14.8-5,14.8-12v-4.3c-3.3-0.9-7.6-1.9-13.1-1.9
			C1111.9,520.4,1107.3,524,1107.3,529.7z"/>
		<path class="st0" d="M1355,307.9c-7.7,0-13.6,6.5-14.5,15.1h28.6C1368.5,314.9,1363.9,307.9,1355,307.9L1355,307.9z"/>
		<path class="st0" d="M1384,405.5c-7.7,0-13.6,6.5-14.5,15.1h28.6C1397.6,412.6,1392.9,405.5,1384,405.5L1384,405.5z"/>
		<path class="st0" d="M1145.9,405.5c-7.7,0-13.6,6.5-14.5,15.1h28.6C1159.5,412.6,1154.8,405.5,1145.9,405.5z"/>
		<path class="st0" d="M1389.3,503.4c-9.7,0-16.2,7.7-16.2,17.3s7,17.4,16.4,17.4s16.3-7.7,16.3-17.2
			C1405.8,511.4,1398.7,503.4,1389.3,503.4L1389.3,503.4z"/>
		<path class="st0" d="M1258.1,503.2c-7.7,0-13.6,6.5-14.5,15.1h28.6C1271.7,510.2,1267,503.2,1258.1,503.2L1258.1,503.2z"/>
		<path class="st0" d="M1291.4,441c8.2,0,14.8-5,14.8-12v-4.3c-3.3-0.9-7.6-1.9-13.1-1.9c-8.4,0-13,3.6-13,9.3
			S1285.4,441,1291.4,441z"/>
		<path class="st0" d="M1438.5,440.4c8.3,0,16.1-6.9,16.1-17.3c0-10.4-7.8-17.2-16.1-17.2s-15.7,6.4-15.7,17.2
			S1430,440.4,1438.5,440.4z"/>
		<path class="st0" d="M1192.9,343.4c8.2,0,14.8-5,14.8-12V327c-3.3-0.9-7.6-1.9-13.1-1.9c-8.4,0-13,3.6-13,9.3
			S1186.9,343.4,1192.9,343.4z"/>
		<path class="st0" d="M1200.2,405.8c-8.5,0-15.4,5.7-15.4,15c0,9.3,7.1,15.2,15.4,15.2c8.3,0,16.3-6,16.3-15.1
			S1208.7,405.8,1200.2,405.8z"/>
		<path class="st0" d="M1409.6,342.7c8.3,0,16.1-6.9,16.1-17.3c0-10.4-7.8-17.2-16.1-17.2c-8.3,0-15.7,6.4-15.7,17.2
			S1401.1,342.7,1409.6,342.7z"/>
		<path class="st1" d="M4.9,232.1c-3.1,17.4-3.1,18-4.9,50c0,7.6,0.4,17.3,0.8,25.6C0.6,300,1,288.3,2.2,274.6
			c2.3-30,6.9-60.2,11.4-77.4l0,0C10.5,208.3,7.2,221.7,4.9,232.1L4.9,232.1z"/>
		<path class="st1" d="M54.7,122.6c17.6-25.2,28.8-38.9,37.8-49.9c7.3-9,8-10,9-11.9v-0.9c-0.6,0-5.3,1.5-19,16.1
			c-5,5.5-11.3,13.2-16.1,19c-12.4,16.2-13.9,18.8-28.3,42.8c-3.4,6.2-7.3,14.6-10.4,20.9c-0.3,0.7-0.8,1.6-1,2.3l0.3,0.5
			C27.7,161.1,36.9,148.1,54.7,122.6L54.7,122.6z"/>
		<path class="st1" d="M40.6,175c4.2,11.8,24,2.3,46.9-40.5c1-2.1,27.3-51.2,19.2-56.1C87,76.3,31.6,149.2,40.6,175z"/>
		<path class="st1" d="M99.9,169.5c11.4,17.7,45.4,1.8,55.9-41c2.3-9.5,7.4-44.8-9.8-44.6C120,88.9,84.9,146,99.9,169.5z"/>
		<path class="st2" d="M191.6,148.4c21,16,56.1-7.4,50.1-41.5c-2.2-12.9-14.3-35.2-33.5-31.5C184.1,83.6,169.4,131.5,191.6,148.4z"
			/>
		<path class="st2" d="M303.5,114.4c24.7,3.6,43.2-18.8,26.1-41C320.7,61.9,299,49,281.4,54.9c-1.2,0.6-2.8,1.4-3.9,2.3
			C261.5,69.3,271.2,109.7,303.5,114.4L303.5,114.4z"/>
		<path class="st3" d="M401.5,67.3c12.9-3.4,12.2-17.7-7.6-30.2c-14.1-8.8-36.9-15.2-47.1-10c-0.7,0.5-1.5,1.2-2,1.9
			C337.1,41.1,378.3,73.5,401.5,67.3z"/>
		<path class="st3" d="M442.7,26.8c5.9-2.4-3.5-11.9-22.8-19.6c-14.3-5.6-33.4-9.3-36.9-5.7C380.9,8.7,432.7,30.7,442.7,26.8
			L442.7,26.8z"/>
		<path class="st1" d="M17,337.2c12.7,15.8,31.3-2,33.9-44.3c1.6-24.8-3.6-63-19.9-70.3c-0.7,0-1.5-0.3-2.1-0.4
			C4.3,220.7-5,310,17,337.2z"/>
		<path class="st1" d="M86.4,329.4c28.6,27.5,68.6,0.4,66.9-45.5c-0.8-23-15.2-54.8-44.6-53.6C67.1,237.5,58.2,302.2,86.4,329.4
			L86.4,329.4z"/>
		<path class="st2" d="M224.9,212.9c-42.9,13.8-46.6,69.1-15.3,89.8c34.8,22.9,81.4-9.6,73.3-51.3
			C278.9,231.1,258.4,205.7,224.9,212.9L224.9,212.9z"/>
		<path class="st3" d="M415.5,200.9c-6.8-17.2-30-36.4-60.4-25.9c-37.3,17.2-31.6,65.4,0.6,79.4C391.3,270,429.4,236,415.5,200.9z"
			/>
		<path class="st3" d="M492.3,193c25,4.9,36.5-21.4,20.7-46.9c-8.6-13.9-28.8-29.3-46.6-19.9C442.6,143.4,464.5,187.6,492.3,193z"/>
		<path class="st3" d="M562.6,135.9c9.5,0.7,4.3-17.3-9.9-35.1c-8.8-11.1-23.6-23.8-28.4-17.6C518.9,96.1,550.1,134.8,562.6,135.9
			L562.6,135.9z"/>
		<path class="st1" d="M87.1,494.4c12.4,3.8,13.3-13.5,2-38.7c-11.8-26.4-36.5-59.9-56-67.7c-2-0.5-4.2-0.9-6,0.1
			C10.9,397.8,60.7,486.2,87.1,494.4z"/>
		<path class="st2" d="M140.2,485.7c37.3,20.3,69.2-1.7,56.9-39.3c-6.9-21.1-33.5-51.6-68.6-49.9c-1.3,0.2-3.2,0.5-4.5,0.8
			C86.6,406,96.9,462.2,140.2,485.7L140.2,485.7z"/>
		<path class="st3" d="M334.2,412.1c-4.3-20.4-28.2-45.4-67.4-37c-43.7,13.8-45.7,59.2-14.4,80.6C290.3,481.6,343,453.4,334.2,412.1
			L334.2,412.1z"/>
		<path class="st2" d="M189.7,565.9c-44.5-28.5-66-37.6-73.1-40.1c-2.5-0.7-3-0.8-4-0.6c-0.3,0.7-0.6,1.4,5.8,6.6
			c13.5,10.7,14.6,11.3,40.7,27.2c16.9,9.4,18.6,10,46.1,21.2l4.9,1.8c3.2,1,3.3,1,3.9,0.6C213.5,581.9,212.3,580.3,189.7,565.9
			L189.7,565.9z"/>
		<path class="st2" d="M272.3,558.8c-13.1-14.5-42.3-28.8-70.8-27c-3.9,0.6-10.5,1.6-14.2,5.5c-14.6,16,37.2,44.7,73,45.5
			C283,583.4,283.5,571.1,272.3,558.8z"/>
		<path class="st3" d="M321.7,512.3c-31.8,9.8-33.6,32-13.9,44.6c30,19.2,76.2,3.1,69.7-24.2C374.3,519.6,355,504.7,321.7,512.3
			L321.7,512.3z"/>
		<path class="st1" d="M469.3,341.4v51h118.5v49.2H469.3v52.8h136.5v49.2H414.3V292.2H604v49.2C604,341.4,469.3,341.4,469.3,341.4z
			 M694.8,292.2h-55.3v251.4h55.3C694.8,543.6,694.8,292.2,694.8,292.2z M795,543.6h-55.3V292.2h191.4v50.3H795V396h120v50.3H795
			V543.6L795,543.6z M1010.1,445.3h6.8v-60.2h-6.8V445.3z M1074.4,417.7v27.6h-6.7v-25.9c0-8.3-4.5-13.4-12.3-13.4
			s-13.3,5.6-13.3,13.9v25.4h-6.7v-44.4h6.7v7.7c2.9-4.8,7.5-8.6,15.2-8.6C1068,400,1074.3,407.2,1074.4,417.7L1074.4,417.7z
			 M1099.6,400.9h14.1v5.8h-14.1v25.9c0,5.4,3,7.4,7.5,7.4c2.3,0,4.1-0.5,6.5-1.6v5.6c-2.3,1.2-4.8,1.9-8,1.9
			c-7.1,0-12.6-3.6-12.6-12.6v-26.9h-6.2v-5.8h6.2v-13.4h6.7v13.4L1099.6,400.9z M1053.4,347.7h-43.9v-60.2h43.5v6.2h-36.7v20.6
			h32.9v6.2h-32.9v21h37.2C1053.4,341.5,1053.4,347.7,1053.4,347.7z M1088,308.3c-7.7,0-13.3,5.6-13.3,13.9v25.4h-6.7v-44.4h6.7v7.7
			c2.9-4.8,7.5-8.6,15.2-8.6c10.7,0,17,7.2,17,17.8v27.6h-6.7v-25.9C1100.2,313.6,1095.7,308.4,1088,308.3L1088,308.3z
			 M1129.8,347.7h-6.6V285h6.6v26c2.9-4.8,7.5-8.6,15.2-8.6c10.7,0,17,7.2,17,17.8v27.6h-6.7v-25.9c0-8.3-4.5-13.4-12.3-13.4
			s-13.3,5.6-13.3,13.9L1129.8,347.7L1129.8,347.7z M1191.5,348.6c7.8,0,13-3.6,16.1-7.6v6.7h6.4v-27.1c0-11.7-6.8-17.8-18.9-17.8
			c-6.5,0-11.3,1.5-16.1,3.7l2,5.4c4.1-1.9,8.3-3.3,13.5-3.3c8.4,0,13.2,4.1,13.2,12.1v1.6c-3.9-1.1-8-1.9-13.7-1.9
			c-11.3,0-19,5-19,14.5C1174.9,344.3,1183.3,348.7,1191.5,348.6L1191.5,348.6z M1194.6,325.1c5.4,0,9.8,0.9,13.1,1.9v4.3
			c0,7-6.7,12-14.8,12c-6,0-11.2-3.3-11.2-8.9S1186.2,325.1,1194.6,325.1z M1269,320.1v27.6h-6.7v-25.9c0-8.3-4.5-13.4-12.3-13.4
			s-13.3,5.6-13.3,13.9v25.4h-6.7v-44.4h6.7v7.7c2.9-4.8,7.5-8.6,15.2-8.6C1262.6,302.3,1268.9,309.6,1269,320.1L1269,320.1z
			 M1319.3,336.1l4.2,3.9c-4.5,5-9.8,8.6-18.1,8.6c-13,0-22.8-10.6-22.8-23.1s9.8-23.3,22.8-23.3c8.5,0,13.7,3.6,17.7,7.9l-4.4,4.7
			c-3.6-3.7-7.5-6.7-13.5-6.7c-9,0-15.9,7.6-15.9,17.3s7,17.4,16.3,17.4C1311.3,342.9,1315.7,340.1,1319.3,336.1L1319.3,336.1z
			 M1370.1,336.6c-3.6,3.8-7.9,6.3-14,6.3c-7.8,0-14.7-5.4-15.7-15h35.2c0-0.8,0-1.5,0-2.1c0-13.1-7.6-23.6-20.7-23.6
			c-12.3,0-21.3,10.3-21.3,23.2c0,13.8,10,23.2,22.2,23.2c8.5,0,13.8-3.4,18.3-8.4l-4.1-3.7L1370.1,336.6z M1354.9,307.8
			c8.8,0,13.5,7,14.2,15.1h-28.6C1341.3,314.3,1347.1,307.8,1354.9,307.8L1354.9,307.8z M1425.3,338.7v8.9h6.7v-62.7h-6.7v26.9
			c-3.5-5-8.8-9.5-17-9.5c-10.6,0-21.2,8.6-21.2,23.2c0,14.6,10.5,23.1,21.2,23.1C1416.4,348.5,1421.7,343.9,1425.3,338.7z
			 M1409.4,342.6c-8.5,0-15.7-6.7-15.7-17.3c0-10.6,7-17.2,15.7-17.2s16.1,6.9,16.1,17.2S1417.7,342.6,1409.4,342.6z M1146,399.9
			c-12.3,0-21.3,10.3-21.3,23.2c0,13.8,10,23.2,22.2,23.2c8.5,0,13.8-3.4,18.3-8.4l-4.1-3.7c-3.6,3.8-7.9,6.3-14,6.3
			c-7.8,0-14.7-5.4-15.7-15h35.2c0-0.8,0-1.5,0-2.1c0-13.1-7.5-23.6-20.7-23.6L1146,399.9z M1131.4,420.6
			c0.8-8.6,6.7-15.1,14.5-15.1c8.8,0,13.5,7,14.2,15.1H1131.4z M1216.2,408.9c-3.6-4.8-9-8.9-17.4-8.9c-10.5,0-20.8,8-20.8,21
			s10.2,20.8,20.8,20.8c8.2,0,13.6-4.2,17.5-9.4v5.3c0,10.4-6.4,15.8-16.1,15.8c-6.4,0-12-2-17.1-5.6l-3,5.2
			c5.9,4.1,12.8,6.2,20.2,6.2c13.7,0,22.6-7.3,22.6-21.7v-36.7h-6.7L1216.2,408.9L1216.2,408.9z M1200.1,436
			c-8.3,0-15.4-6.1-15.4-15.2s6.9-15,15.4-15c8.5,0,16.3,5.9,16.3,15.1C1216.4,430.1,1208.6,436,1200.1,436z M1264.5,400.1v7.1h-0.5
			c-9.8,0-17.7,6.9-17.7,20.4v17.7h-6.6v-44.4h6.6v11.6C1249.7,405.1,1256.1,399.8,1264.5,400.1L1264.5,400.1z M1293.5,400.3
			c-6.5,0-11.3,1.5-16.1,3.7l2,5.4c4.1-1.9,8.3-3.3,13.5-3.3c8.4,0,13.2,4.1,13.2,12.1v1.6c-3.9-1.1-8-1.9-13.7-1.9
			c-11.3,0-19,5-19,14.5c0,9.5,8.4,13.9,16.6,13.9c7.8,0,13-3.6,16.1-7.6v6.7h6.4v-27.1C1312.5,406.5,1305.7,400.4,1293.5,400.3
			L1293.5,400.3z M1306.2,429c0,7-6.7,12-14.8,12c-6,0-11.2-3.3-11.2-8.9s4.6-9.3,13-9.3c5.4,0,9.8,0.9,13.1,1.9
			C1306.2,424.7,1306.2,429,1306.2,429z M1337.7,400.9h14.1v5.8h-14.1v25.9c0,5.4,3,7.4,7.5,7.4c2.3,0,4.1-0.5,6.5-1.6v5.6
			c-2.3,1.2-4.8,1.9-8,1.9c-7.1,0-12.6-3.6-12.6-12.6v-26.9h-6.2v-5.8h6.2v-13.4h6.7v13.4L1337.7,400.9z M1384.1,400
			c-12.3,0-21.3,10.3-21.3,23.2c0,13.8,10,23.2,22.2,23.2c8.5,0,13.8-3.4,18.3-8.4l-4.1-3.7c-3.6,3.8-7.9,6.3-14,6.3
			c-7.8,0-14.6-5.4-15.7-15h35.2c0-0.8,0-1.5,0-2.1c0-13.1-7.6-23.6-20.7-23.6L1384.1,400z M1369.5,420.7
			c0.8-8.6,6.7-15.1,14.5-15.1c8.8,0,13.5,7,14.2,15.1H1369.5L1369.5,420.7z M1454.3,382.6v26.9c-3.5-5-8.7-9.5-17-9.5
			c-10.6,0-21.2,8.6-21.2,23.2c0,14.6,10.6,23.1,21.2,23.1c8.2,0,13.4-4.6,17-9.9v8.9h6.7v-62.7
			C1460.9,382.6,1454.3,382.6,1454.3,382.6z M1438.5,440.4c-8.5,0-15.7-6.7-15.7-17.3c0-10.6,7-17.2,15.7-17.2s16.1,6.9,16.1,17.2
			C1454.6,433.4,1446.8,440.4,1438.5,440.4z M1139.5,515.8V543h-6.4v-6.7c-3.1,4-8.3,7.6-16.1,7.6c-8.3,0-16.6-4.6-16.6-13.9
			s7.7-14.5,19-14.5c5.7,0,9.8,0.8,13.7,1.9v-1.6c0-8-4.9-12.1-13.2-12.1c-5.3,0-9.4,1.4-13.5,3.3l-2-5.4c4.9-2.3,9.8-3.7,16.1-3.7
			C1132.7,497.9,1139.5,504.1,1139.5,515.8L1139.5,515.8z M1133.3,522.4c-3.3-0.9-7.6-1.9-13.1-1.9c-8.4,0-13,3.6-13,9.3
			c0,5.7,5.2,8.9,11.2,8.9c8.2,0,14.8-5,14.8-12C1133.3,526.7,1133.3,522.4,1133.3,522.4z M1009.5,543.1h6.8v-26.2h32.6v-6.2h-32.6
			v-21.5h36.4v-6.3h-43.3L1009.5,543.1L1009.5,543.1z M1073.5,510.2v-11.6h-6.7V543h6.7v-17.7c0-13.4,7.9-20.4,17.7-20.4h0.5v-7.1
			C1083.2,497.3,1076.8,502.7,1073.5,510.2L1073.5,510.2z M1412.5,520.8c0,12.7-9.9,23.3-23.3,23.3s-23-10.5-23-23.1
			c0-12.6,9.8-23.3,23.2-23.3C1402.8,497.7,1412.5,508.2,1412.5,520.8L1412.5,520.8z M1405.7,521c0-9.8-7.1-17.5-16.5-17.5
			s-16.2,7.7-16.2,17.3c0,9.6,7,17.4,16.4,17.4C1398.8,538.2,1405.7,530.5,1405.7,521L1405.7,521z M1206.7,497.7
			c-7.7,0-12.5,3.9-15.7,8.8c-2.4-5-7-8.8-14.3-8.8s-11.5,4-14.4,8.5v-7.5h-6.6v44.4h6.6v-25.4c0-8.2,5.4-14,12.4-14
			s11.5,4.9,11.5,13.2v26.1h6.6v-25.6c0-8.7,5.6-13.7,12.3-13.7c7.2,0,11.5,4.8,11.5,13.4v25.9h6.7v-27.5
			C1223.3,504.6,1217,497.7,1206.7,497.7L1206.7,497.7z M1433.2,510.3v-11.6h-6.6v44.4h6.6v-17.7c0-13.4,7.9-20.4,17.7-20.4h0.5
			v-7.1C1442.9,497.4,1436.5,502.8,1433.2,510.3L1433.2,510.3z M1337.2,534.3l-12-35.9h-5.5l-11.9,35.9l-11.6-35.7h-7l15.6,44.8h5.8
			l12-35l11.9,35h5.7l15.7-44.8h-6.9L1337.2,534.3z M1483.8,517.7l18.7-19.1h-8.3l-23.9,25v-43.3h-6.6v62.7h6.6v-11.6l9-9.1
			l15.9,20.7h7.9C1503,543.1,1483.8,517.7,1483.8,517.7z M1279,521.3c0,0.6,0,1.3,0,2.1h-35.2c0.9,9.7,7.8,15,15.7,15
			c6.1,0,10.4-2.4,14-6.3l4.1,3.7c-4.5,5-9.9,8.4-18.3,8.4c-12.2,0-22.2-9.4-22.2-23.2c0-12.9,9-23.2,21.3-23.2
			c13.1,0,20.7,10.5,20.7,23.6H1279z M1272.3,518.5c-0.7-8.1-5.4-15.1-14.2-15.1c-7.7,0-13.6,6.5-14.5,15.1H1272.3L1272.3,518.5z"/>
	</g>
</g>
</svg>
